<svg width="136" height="32" viewBox="0 0 136 32" fill="none" xmlns="http://www.w3.org/2000/svg">
<path d="M4.65908 11.1382V8.31143C4.65908 6.84884 4.97775 5.54093 5.6156 4.38772C6.25344 3.2064 7.1408 2.27819 8.27766 1.60314C9.44267 0.899982 10.8152 0.548401 12.3962 0.548401C13.3942 0.548401 14.2816 0.703095 15.0583 1.01248C15.8626 1.32187 16.625 1.77192 17.3463 2.36258L14.2263 6.24409C13.9768 6.04721 13.6996 5.9066 13.3943 5.82221C13.1171 5.70971 12.7841 5.65343 12.3962 5.65343C11.6749 5.65343 11.1067 5.87843 10.6907 6.32848C10.3023 6.75037 10.1082 7.34103 10.1082 8.10047V11.1382H22.7539V31.5162H17.3043V15.9901H10.1082V31.5161H4.65908V15.9901H0V11.1382H4.65908Z" fill="#FFFCF2"/>
<path d="M27.589 31.5161V1.01248H33.0381V31.5161H27.589Z" fill="#FFFCF2"/>
<path d="M50.9698 31.5162V19.4919C50.9698 18.3105 50.5954 17.3965 49.8464 16.7495C49.1255 16.0745 48.2243 15.7369 47.1428 15.7369C46.4214 15.7369 45.7698 15.8917 45.1877 16.2011C44.6052 16.4823 44.1477 16.9042 43.8147 17.4668C43.4822 18.0293 43.3157 18.7044 43.3157 19.4919L43.3157 31.5162H37.8666V11.1382H43.3157V12.9062C43.8031 12.4235 44.3578 12.017 44.9797 11.6867C46.1443 11.0397 47.4615 10.7163 48.9313 10.7163C50.3182 10.7163 51.5796 11.0397 52.7169 11.6867C53.6696 12.2052 54.4568 12.9115 55.0785 13.8053C55.7507 12.9354 56.5717 12.2432 57.542 11.7289C58.7623 11.0538 60.121 10.7163 61.6186 10.7163C63.1161 10.7163 64.4609 11.0397 65.6536 11.6867C66.8458 12.3055 67.789 13.2055 68.4822 14.3869C69.1754 15.5682 69.5222 16.9745 69.5222 18.6059V31.5162H64.0726V19.4919C64.0726 18.3105 63.6986 17.3965 62.9496 16.7495C62.2287 16.0745 61.3275 15.7369 60.246 15.7369C59.5523 15.7369 58.9007 15.8917 58.291 16.2011C57.7085 16.4823 57.251 16.9042 56.918 17.4668C56.5872 18.0263 56.4207 18.6971 56.419 19.4792V31.5162H50.9698Z" fill="#FFFCF2"/>
<path d="M73.9394 31.5162V11.1382H79.43V31.5162H73.9394Z" fill="#FFFCF2"/>
<path d="M92.9097 25.9153L88.9996 31.5162H82.5935L89.6962 21.3123L82.5935 11.1382H89.0411L92.9097 16.6958L96.7782 11.1382H103.226L96.1231 21.3123L103.226 31.5162H96.8197L92.9097 25.9153Z" fill="#FFFCF2"/>
<g clip-path="url(#clip0_207_1001)">
<path d="M135.376 27.614L131.761 22.519C133.016 21.7289 133.511 19.9154 132.528 18.5305L128.279 12.5418C129.117 11.6344 129.337 10.1656 128.51 8.99973L123.709 2.23226C122.641 0.727186 120.462 0.727186 119.395 2.23226L114.593 8.99973C113.766 10.1656 113.986 11.6344 114.824 12.5418L110.575 18.5305C109.593 19.9154 110.087 21.7289 111.342 22.519L107.728 27.614C106.435 29.4357 107.696 32 109.885 32H133.219C135.407 32 136.668 29.4357 135.376 27.614Z" fill="#75C71B"/>
<path d="M121.424 1.12537C121.05 1.12537 120.676 1.50062 120.429 2.25276L118.213 9.01578C117.832 10.1805 117.933 11.6486 118.32 12.5551L116.36 18.5396C115.906 19.9236 116.134 21.7364 116.713 22.5256L115.046 27.6173C114.449 29.4375 115.031 32 116.041 32H109.397C107.141 32 105.841 29.4375 107.173 27.6173L110.9 22.5256C109.605 21.7361 109.095 19.9236 110.109 18.5396L114.489 12.5551C113.625 11.6486 113.398 10.1803 114.251 9.01578L119.2 2.25276C119.751 1.50062 120.587 1.12537 121.424 1.12537Z" fill="#62A617"/>
<path d="M128.397 13.3401C127.209 14.0794 125.673 13.8995 124.686 12.9047L121.071 9.26261C120.088 8.2727 118.468 8.37213 117.612 9.47442C117.482 9.64271 117.328 9.78208 117.158 9.89033C116.866 10.0773 116.528 10.1749 116.187 10.1749C115.829 10.1749 115.468 10.068 115.154 9.84681C114.649 9.49177 114.379 8.92521 114.379 8.35037C114.379 7.97661 114.493 7.60009 114.729 7.27563L118.562 2.00024C119.162 1.17421 120.054 0.664104 121.05 0.568529C121.163 0.557511 121.279 0.551727 121.395 0.551727C122.527 0.551727 123.56 1.07918 124.228 2.00024L129.154 8.78005C129.536 9.30696 129.755 9.91071 129.815 10.5244C129.923 11.6542 129.355 12.7427 128.397 13.3401Z" fill="#DAF3FE"/>
<path d="M121.356 0.600111C120.788 0.600111 120.27 1.12041 119.934 2.02796L117.427 8.8086C117.304 9.14326 117.214 9.50959 117.158 9.88996C116.866 10.077 116.528 10.1745 116.187 10.1745C115.829 10.1745 115.468 10.0676 115.154 9.84644C114.649 9.49141 114.379 8.92484 114.379 8.35001C114.379 7.97624 114.493 7.59972 114.729 7.27526L118.562 1.99987C119.162 1.17384 120.054 0.663737 121.05 0.568161C121.161 0.588268 121.264 0.600111 121.356 0.600111Z" fill="#9EC2CC"/>
<path opacity="0.8" d="M109.836 13.4109C109.836 13.9403 109.407 14.3692 108.878 14.3692C108.348 14.3692 107.919 13.9403 107.919 13.4109C107.919 12.8818 108.348 12.4527 108.878 12.4527C109.407 12.4527 109.836 12.8818 109.836 13.4109Z" fill="white"/>
<path opacity="0.8" d="M127.567 25.193C127.567 25.7221 127.138 26.151 126.609 26.151C126.08 26.151 125.651 25.7221 125.651 25.193C125.651 24.6636 126.08 24.2347 126.609 24.2347C127.138 24.2347 127.567 24.6636 127.567 25.193Z" fill="white"/>
<path opacity="0.8" d="M131.752 3.86783C131.752 4.39719 131.323 4.82607 130.794 4.82607C130.265 4.82607 129.836 4.39719 129.836 3.86783C129.836 3.33873 130.265 2.90985 130.794 2.90985C131.323 2.90985 131.752 3.33873 131.752 3.86783Z" fill="white"/>
<path d="M109.835 5.4147C109.699 5.4147 109.562 5.3627 109.458 5.25872C109.25 5.05101 109.25 4.714 109.458 4.50602L110.663 3.30155C110.871 3.09358 111.208 3.09358 111.416 3.30155C111.624 3.50952 111.624 3.84654 111.416 4.05424L110.211 5.25872C110.107 5.3627 109.971 5.4147 109.835 5.4147Z" fill="white"/>
<path d="M111.039 5.4147C110.903 5.4147 110.767 5.3627 110.663 5.25872L109.458 4.05424C109.25 3.84654 109.25 3.50952 109.458 3.30155C109.666 3.09358 110.003 3.09358 110.211 3.30155L111.416 4.50602C111.624 4.714 111.624 5.05101 111.416 5.25872C111.312 5.3627 111.176 5.4147 111.039 5.4147Z" fill="white"/>
<path d="M117.463 21.5599C117.327 21.5599 117.191 21.5079 117.087 21.4039C116.879 21.196 116.879 20.8589 117.087 20.651L118.291 19.4465C118.499 19.2388 118.836 19.2388 119.044 19.4465C119.252 19.6545 119.252 19.9915 119.044 20.1995L117.84 21.4039C117.736 21.5079 117.599 21.5599 117.463 21.5599Z" fill="white"/>
<path d="M118.668 21.5599C118.531 21.5599 118.395 21.5079 118.291 21.4039L117.087 20.1995C116.879 19.9915 116.879 19.6545 117.087 19.4465C117.295 19.2388 117.632 19.2388 117.84 19.4465L119.044 20.651C119.252 20.8589 119.252 21.196 119.044 21.4039C118.94 21.5079 118.804 21.5599 118.668 21.5599Z" fill="white"/>
<path d="M133.186 13.4357C133.05 13.4357 132.913 13.3837 132.809 13.2797C132.601 13.0718 132.601 12.7347 132.809 12.527L134.014 11.3226C134.222 11.1146 134.559 11.1146 134.766 11.3226C134.974 11.5303 134.974 11.8673 134.766 12.0753L133.562 13.2797C133.458 13.3834 133.322 13.4357 133.186 13.4357Z" fill="white"/>
<path d="M134.39 13.4357C134.254 13.4357 134.118 13.3837 134.014 13.2797L132.809 12.0753C132.601 11.8673 132.601 11.5303 132.809 11.3226C133.017 11.1146 133.354 11.1146 133.562 11.3226L134.766 12.527C134.974 12.7347 134.974 13.0718 134.766 13.2797C134.663 13.3834 134.526 13.4357 134.39 13.4357Z" fill="white"/>
</g>
<path d="M74.4866 8.86398C75.073 9.45106 75.8134 9.74462 76.7074 9.74462C77.6296 9.74462 78.3695 9.45106 78.9287 8.86398C79.515 8.24888 79.8084 7.49404 79.8084 6.59946C79.8084 5.73275 79.515 4.9919 78.9287 4.37685C78.3695 3.7618 77.6296 3.4543 76.7074 3.4543C75.8134 3.4543 75.073 3.7618 74.4866 4.37685C73.8998 4.9919 73.6064 5.73275 73.6064 6.59946C73.6064 7.49404 73.8998 8.24888 74.4866 8.86398Z" fill="#EB5E28"/>
<path d="M17.6544 8.86398C18.2407 9.45106 18.9811 9.74462 19.8751 9.74462C20.7973 9.74462 21.5373 9.45106 22.0964 8.86398C22.6827 8.24888 22.9761 7.49404 22.9761 6.59946C22.9761 5.73275 22.6827 4.9919 22.0964 4.37685C21.5373 3.7618 20.7973 3.4543 19.8751 3.4543C18.9811 3.4543 18.2407 3.7618 17.6544 4.37685C17.0676 4.9919 16.7742 5.73275 16.7742 6.59946C16.7742 7.49404 17.0676 8.24888 17.6544 8.86398Z" fill="#EB5E28"/>
<defs>
<clipPath id="clip0_207_1001">
<rect width="30.8966" height="32" fill="white" transform="translate(105)"/>
</clipPath>
</defs>
</svg>
