<svg width="102" height="24" viewBox="0 0 102 24" fill="none" xmlns="http://www.w3.org/2000/svg">
  <g clip-path="url(#clip0_32301_5)">
    <path d="M3.49431 8.35365V6.23357C3.49431 5.13663 3.73331 4.1557 4.2117 3.29079C4.69008 2.4048 5.3556 1.70864 6.20825 1.20235C7.082 0.674986 8.1114 0.411301 9.29715 0.411301C10.0457 0.411301 10.7112 0.527321 11.2937 0.75936C11.897 0.991402 12.4688 1.32894 13.0097 1.77193L10.6697 4.68307C10.4826 4.53541 10.2747 4.42995 10.0457 4.36666C9.83783 4.28228 9.58808 4.24007 9.29715 4.24007C8.75618 4.24007 8.33002 4.40882 8.01802 4.74636C7.72672 5.06278 7.58115 5.50577 7.58115 6.07535V8.35365H17.0654V23.6371H12.9782V11.9926H7.58115V23.6371H3.49431V11.9926H0V8.35365H3.49431Z" fill="#373327"/>
    <path d="M20.6917 23.6371V0.759354H24.7786V23.6371H20.6917Z" fill="#373327"/>
    <path d="M38.2273 23.6372V14.6189C38.2273 13.7329 37.9465 13.0474 37.3848 12.5621C36.8441 12.0559 36.1682 11.8027 35.3571 11.8027C34.816 11.8027 34.3273 11.9188 33.8908 12.1508C33.4539 12.3617 33.1108 12.6782 32.861 13.1001C32.6116 13.522 32.4868 14.0283 32.4868 14.6189V23.6372H28.3999V8.35366H32.4868V9.67966C32.8523 9.31763 33.2683 9.01276 33.7348 8.76503C34.6082 8.27978 35.5961 8.03723 36.6985 8.03723C37.7386 8.03723 38.6847 8.27978 39.5377 8.76503C40.2522 9.15391 40.8426 9.68363 41.3089 10.354C41.813 9.70156 42.4288 9.18241 43.1565 8.79668C44.0717 8.29036 45.0907 8.03723 46.2139 8.03723C47.3371 8.03723 48.3457 8.27978 49.2402 8.76503C50.1344 9.22913 50.8417 9.90413 51.3616 10.7902C51.8815 11.6762 52.1416 12.7309 52.1416 13.9544V23.6372H48.0544V14.6189C48.0544 13.7329 47.7739 13.0474 47.2122 12.5621C46.6715 12.0559 45.9956 11.8027 45.1845 11.8027C44.6642 11.8027 44.1755 11.9188 43.7182 12.1508C43.2814 12.3617 42.9382 12.6782 42.6885 13.1001C42.4404 13.5197 42.3155 14.0228 42.3142 14.6094V23.6372H38.2273Z" fill="#373327"/>
    <path d="M55.4546 23.6372V8.35365H59.5725V23.6372H55.4546Z" fill="#373327"/>
    <path d="M69.6823 19.4365L66.7497 23.6372H61.9451L67.2721 15.9842L61.9451 8.35365H66.7808L69.6823 12.5219L72.5836 8.35365H77.4195L72.0923 15.9842L77.4195 23.6372H72.6148L69.6823 19.4365Z" fill="#373327"/>
    <mask id="mask0_32301_5" style="mask-type:luminance" maskUnits="userSpaceOnUse" x="78" y="0" width="24" height="24">
      <path d="M101.922 0H78.75V24H101.922V0Z" fill="white"/>
    </mask>
    <g mask="url(#mask0_32301_5)">
      <path d="M101.532 20.7105L98.8207 16.8892C99.762 16.2967 100.133 14.9366 99.396 13.8979L96.2093 9.40635C96.8378 8.7258 97.0027 7.6242 96.3825 6.7498L92.7817 1.6742C91.9807 0.54539 90.3465 0.54539 89.5462 1.6742L85.9447 6.7498C85.3245 7.6242 85.4895 8.7258 86.118 9.40635L82.9312 13.8979C82.1947 14.9366 82.5653 16.2967 83.5065 16.8892L80.796 20.7105C79.8262 22.0768 80.772 24 82.4137 24H99.9142C101.555 24 102.501 22.0768 101.532 20.7105Z" fill="#75C71B"/>
      <path d="M91.068 0.844025C90.7875 0.844025 90.507 1.12546 90.3218 1.68957L88.6598 6.76183C88.374 7.63537 88.4498 8.73645 88.74 9.41632L87.27 13.9047C86.9295 14.9427 87.1005 16.3023 87.5348 16.8942L86.2845 20.713C85.8368 22.0781 86.2733 24 87.0308 24H82.0478C80.3558 24 79.3807 22.0781 80.3797 20.713L83.175 16.8942C82.2038 16.3021 81.8213 14.9427 82.5818 13.9047L85.8668 9.41632C85.2188 8.73645 85.0485 7.63522 85.6883 6.76183L89.4 1.68957C89.8132 1.12546 90.4403 0.844025 91.068 0.844025Z" fill="#62A617"/>
      <path d="M96.2978 10.0051C95.4068 10.5595 94.2547 10.4246 93.5145 9.67852L90.8032 6.94695C90.066 6.20452 88.851 6.27909 88.209 7.10581C88.1115 7.23202 87.996 7.33655 87.8685 7.41774C87.6495 7.55797 87.396 7.63117 87.1402 7.63117C86.8717 7.63117 86.601 7.55099 86.3655 7.3851C85.9867 7.11882 85.7842 6.6939 85.7842 6.26277C85.7842 5.98245 85.8697 5.70006 86.0467 5.45672L88.9215 1.50017C89.3715 0.88065 90.0405 0.498071 90.7875 0.426389C90.8723 0.418126 90.9592 0.413788 91.0462 0.413788C91.8952 0.413788 92.67 0.809378 93.171 1.50017L96.8655 6.58503C97.152 6.98021 97.3163 7.43302 97.3613 7.89329C97.4423 8.74064 97.0163 9.55702 96.2978 10.0051Z" fill="#DAF3FE"/>
      <path d="M91.017 0.450079C90.591 0.450079 90.2025 0.840304 89.9505 1.52097L88.0703 6.60645C87.978 6.85744 87.9105 7.13219 87.8685 7.41747C87.6495 7.55775 87.396 7.63087 87.1402 7.63087C86.8717 7.63087 86.601 7.5507 86.3655 7.38483C85.9867 7.11855 85.7842 6.69363 85.7842 6.2625C85.7842 5.98218 85.8697 5.69979 86.0467 5.45644L88.9215 1.4999C89.3715 0.880376 90.0405 0.497799 90.7875 0.426117C90.8708 0.441197 90.948 0.450079 91.017 0.450079Z" fill="#9EC2CC"/>
      <path opacity="0.8" d="M82.377 10.0582C82.377 10.4552 82.0552 10.7769 81.6585 10.7769C81.261 10.7769 80.9392 10.4552 80.9392 10.0582C80.9392 9.66135 81.261 9.33952 81.6585 9.33952C82.0552 9.33952 82.377 9.66135 82.377 10.0582Z" fill="white"/>
      <path opacity="0.8" d="M95.6753 18.8948C95.6753 19.2916 95.3535 19.6133 94.9568 19.6133C94.56 19.6133 94.2383 19.2916 94.2383 18.8948C94.2383 18.4977 94.56 18.176 94.9568 18.176C95.3535 18.176 95.6753 18.4977 95.6753 18.8948Z" fill="white"/>
      <path opacity="0.8" d="M98.814 2.90086C98.814 3.29788 98.4923 3.61954 98.0955 3.61954C97.6988 3.61954 97.377 3.29788 97.377 2.90086C97.377 2.50403 97.6988 2.18237 98.0955 2.18237C98.4923 2.18237 98.814 2.50403 98.814 2.90086Z" fill="white"/>
      <path d="M82.3763 4.06102C82.2743 4.06102 82.1715 4.02202 82.0935 3.94404C81.9375 3.78825 81.9375 3.5355 82.0935 3.37951L82.9973 2.47616C83.1533 2.32018 83.406 2.32018 83.562 2.47616C83.718 2.63214 83.718 2.8849 83.562 3.04068L82.6583 3.94404C82.5803 4.02202 82.4783 4.06102 82.3763 4.06102Z" fill="white"/>
      <path d="M83.2793 4.06102C83.1773 4.06102 83.0753 4.02202 82.9973 3.94404L82.0935 3.04068C81.9375 2.8849 81.9375 2.63214 82.0935 2.47616C82.2495 2.32018 82.5023 2.32018 82.6583 2.47616L83.562 3.37951C83.718 3.5355 83.718 3.78825 83.562 3.94404C83.484 4.02202 83.382 4.06102 83.2793 4.06102Z" fill="white"/>
      <path d="M88.0972 16.1699C87.9952 16.1699 87.8932 16.1309 87.8152 16.0529C87.6592 15.897 87.6592 15.6442 87.8152 15.4882L88.7183 14.5849C88.8743 14.4291 89.127 14.4291 89.283 14.5849C89.439 14.7409 89.439 14.9936 89.283 15.1496L88.38 16.0529C88.302 16.1309 88.1992 16.1699 88.0972 16.1699Z" fill="white"/>
      <path d="M89.001 16.1699C88.8983 16.1699 88.7963 16.1309 88.7183 16.0529L87.8152 15.1496C87.6592 14.9936 87.6592 14.7409 87.8152 14.5849C87.9712 14.4291 88.224 14.4291 88.38 14.5849L89.283 15.4882C89.439 15.6442 89.439 15.897 89.283 16.0529C89.205 16.1309 89.103 16.1699 89.001 16.1699Z" fill="white"/>
      <path d="M99.8895 10.0768C99.7875 10.0768 99.6847 10.0378 99.6067 9.95976C99.4507 9.80384 99.4507 9.55101 99.6067 9.39524L100.511 8.49194C100.667 8.33594 100.919 8.33594 101.075 8.49194C101.231 8.64771 101.231 8.90046 101.075 9.05646L100.171 9.95976C100.093 10.0375 99.9915 10.0768 99.8895 10.0768Z" fill="white"/>
      <path d="M100.792 10.0768C100.69 10.0768 100.589 10.0378 100.511 9.95976L99.6067 9.05646C99.4507 8.90046 99.4507 8.64771 99.6067 8.49194C99.7627 8.33594 100.015 8.33594 100.171 8.49194L101.075 9.39524C101.231 9.55101 101.231 9.80384 101.075 9.95976C100.997 10.0375 100.894 10.0768 100.792 10.0768Z" fill="white"/>
    </g>
    <path d="M55.865 6.64799C56.3048 7.0883 56.86 7.30847 57.5305 7.30847C58.2222 7.30847 58.7771 7.0883 59.1965 6.64799C59.6363 6.18666 59.8563 5.62053 59.8563 4.9496C59.8563 4.29957 59.6363 3.74393 59.1965 3.28264C58.7771 2.82135 58.2222 2.59073 57.5305 2.59073C56.86 2.59073 56.3048 2.82135 55.865 3.28264C55.4249 3.74393 55.2048 4.29957 55.2048 4.9496C55.2048 5.62053 55.4249 6.18666 55.865 6.64799Z" fill="#EB5E28"/>
    <path d="M13.2408 6.64799C13.6805 7.0883 14.2358 7.30847 14.9063 7.30847C15.598 7.30847 16.153 7.0883 16.5723 6.64799C17.012 6.18666 17.2321 5.62053 17.2321 4.9496C17.2321 4.29957 17.012 3.74393 16.5723 3.28264C16.153 2.82135 15.598 2.59073 14.9063 2.59073C14.2358 2.59073 13.6805 2.82135 13.2408 3.28264C12.8007 3.74393 12.5807 4.29957 12.5807 4.9496C12.5807 5.62053 12.8007 6.18666 13.2408 6.64799Z" fill="#EB5E28"/>
  </g>
  <defs>
    <clipPath id="clip0_32301_5">
      <rect width="102" height="24" fill="white"/>
    </clipPath>
  </defs>
</svg>
